<svg width="102" height="36" xmlns="http://www.w3.org/2000/svg" xmlns:xlink="http://www.w3.org/1999/xlink" xml:space="preserve" overflow="hidden"><defs><clipPath id="clip0"><rect x="952" y="19" width="102" height="36"/></clipPath></defs><g clip-path="url(#clip0)" transform="translate(-952 -19)"><path d="M46.8466 32.0565C45.0832 32.0565 43.9351 31.021 43.9351 29.2988 43.9351 27.5767 45.0832 26.5036 46.8466 26.5036 48.61 26.5036 49.7544 27.5767 49.7544 29.2988 49.7544 31.021 48.6063 32.0565 46.8466 32.0565M46.8466 25.7007C44.4716 25.7007 42.4794 27.269 42.4794 29.2988 42.4794 31.3286 44.4716 32.8594 46.8466 32.8594 49.2216 32.8594 51.2101 31.2911 51.2101 29.2988 51.2101 27.3066 49.2178 25.7007 46.8466 25.7007" fill="#17233D" transform="matrix(1 0 0 1.09091 952 19.0132)"/><path d="M54.2379 25.8508 55.6937 25.8508 55.6937 30.3344C55.6937 31.3661 56.3428 32.0565 57.5696 32.0565 58.7965 32.0565 59.4456 31.4449 59.4456 30.4094L59.4456 25.9296 60.9013 25.9296 60.9013 30.4319C60.9013 31.6963 59.4831 32.9607 57.5696 32.9607 55.6561 32.9607 54.2379 31.6213 54.2379 30.3569Z" fill="#17233D" transform="matrix(1 0 0 1.09091 952 19.0132)"/><path d="M69.5571 26.5787 67.3359 26.5787 67.3359 32.7469 65.8802 32.7469 65.8802 26.5787 63.6965 26.5787 63.4677 25.8508 69.7859 25.8508 69.5571 26.5787Z" fill="#17233D" transform="matrix(1 0 0 1.09091 952 19.0132)"/><path d="M94.6012 26.5787 92.3801 26.5787 92.3801 32.7469 90.9243 32.7469 90.9243 26.5787 88.7032 26.5787 88.4743 25.8508 94.8301 25.8508 94.6012 26.5787Z" fill="#17233D" transform="matrix(1 0 0 1.09091 952 19.0132)"/><path d="M77.5224 32.7469 72.7725 32.7469 72.7725 25.8508 74.2282 25.8508 74.2282 31.9815 77.7513 31.9815 77.5224 32.7469Z" fill="#17233D" transform="matrix(1 0 0 1.09091 952 19.0132)"/><path d="M85.8329 32.019 85.6003 32.7469 80.8541 32.7469 80.8541 25.8508 85.409 25.8508 85.6416 26.5787 82.3099 26.5787 82.3099 28.7248 84.8724 28.7248 84.8724 29.4902 82.3099 29.4902 82.3099 31.9777 85.8329 31.9777 85.8329 32.019Z" fill="#17233D" transform="matrix(1 0 0 1.09091 952 19.0132)"/><path d="M100.041 28.5334C99.3136 28.1582 98.3156 27.7305 98.4319 27.1527 98.5482 26.5749 99.0435 26.4023 99.7714 26.4249 100.297 26.4031 100.818 26.5334 101.272 26.8L101.809 26.2222 101.617 26.1097C101.58 26.1097 101.542 26.0722 101.501 26.0722 100.933 25.8289 100.322 25.7013 99.7038 25.697 98.1693 25.697 97.4039 26.5749 97.3664 27.3403 97.3288 28.3008 97.8279 28.9499 99.2423 29.7528 100.24 30.3306 100.852 30.597 100.852 31.2874 100.852 31.7826 100.278 32.0903 99.55 32.0903 98.8818 32.0888 98.2289 31.889 97.674 31.5162L97.0212 32.0152 97.2913 32.2066C97.9869 32.6478 98.8026 32.8616 99.625 32.8181 100.927 32.8181 101.962 32.1691 102 30.9797 102.038 30.1393 101.692 29.4489 100.049 28.5297" fill="#17233D" transform="matrix(1 0 0 1.09091 952 19.0132)"/><path d="M24.6464 0 19.7352 19.6976 36.7051 0 24.6464 0Z" fill="#FF9E1C" transform="matrix(1 0 0 1.09091 952 19.0132)"/><path d="M19.904 22.6354 19.7577 23.0106 19.7577 23.0181 16.0057 32.7093 19.7577 32.7093 23.5096 32.7093 33.6848 9.96513 36.7802 3.05032 19.904 22.6354Z" fill="#0057B8" transform="matrix(1 0 0 1.09091 952 19.0132)"/><path d="M13.0867 0 1.01677 0 18.0806 20.0203 13.0867 0Z" fill="#0057B8" transform="matrix(1 0 0 1.09091 952 19.0132)"/><path d="M0 2.69764 0 2.69764 13.2893 32.3979 17.045 22.6917 0 2.69764Z" fill="#00A8E0" transform="matrix(1 0 0 1.09091 952 19.0132)"/><path d="M62.9274 0 53.0148 20.9808 52.2682 20.9808 42.4831 0 47.2106 0 52.7672 12.4001 58.4889 0 62.9274 0Z" fill="#17233D" transform="matrix(1 0 0 1.09091 952 19.0132)"/><path d="M88.5456 14.3024 91.4758 7.84154 94.3611 14.3024ZM91.8323 0 91.1006 0 80.8879 20.9808 85.499 20.9808 87.0448 17.6341 95.8356 17.6341 97.4301 21.0108 101.996 21.0108Z" fill="#17233D" transform="matrix(1 0 0 1.09091 952 19.0132)"/><path d="M70.0898 0 74.2357 0 74.2357 20.9808 70.0898 20.9808Z" fill="#17233D" transform="matrix(1 0 0 1.09091 952 19.0132)"/></g></svg>